<svg width="664" height="422" viewBox="0 0 664 422" fill="none" xmlns="http://www.w3.org/2000/svg">
<path d="M602.787 301.163H482.083V422H603.525V301.697C603.25 301.559 603.001 301.378 602.787 301.163Z" fill="#27BD80"/>
<path d="M662.525 121.069L603.033 180.28V301.163L664 241.163V120.558L662.525 121.069Z" fill="#ECF3FB"/>
<path d="M664 0H542.558V120.558L664 120.558V0Z" fill="#27BD80"/>
<path d="M475.396 291.031C466.939 279.552 463.694 274.718 453.074 257.708C439.406 235.771 432.571 225.733 425.54 217.042C421.558 212.162 411.331 202.309 407.742 199.846C406.415 199.009 405.382 198.173 405.382 197.987C405.382 197.801 407.103 196.918 409.217 195.942C425.885 188.18 436.308 174.935 440.094 156.809C441.323 151.093 441.323 137.661 440.143 131.526C435.325 106.941 416.445 90.1629 387.633 85.0041C382.323 84.0281 380.356 83.9816 348.25 83.7957L314.423 83.6098V301.163H346.382V206.817H354.199C362.066 206.817 368.261 207.514 372.391 208.908C379.963 211.418 392.844 223.362 404.251 238.421C407.25 242.371 412.61 250.83 422.099 266.538C424.852 271.14 429.867 278.762 433.161 283.502C436.456 288.243 440.438 294.145 442.061 296.608L444.961 301.163H483.42C483.42 301.163 483.42 301.13 483.42 301.116H482.82L475.396 291.031ZM398.253 168.521C389.944 176.422 381.438 178.467 357.149 178.467H345.89V110.473L359.804 110.752C369.048 110.891 375.144 111.216 378.144 111.728C392.254 114.051 400.465 119.396 405.185 129.435C407.545 134.594 408.48 139.474 408.185 145.701C407.84 152.255 407.054 155.461 404.251 160.806C402.678 163.873 401.35 165.593 398.253 168.521Z" fill="#ECF3FB"/>
<path d="M234.133 197.847C234.035 281.969 233.789 313.107 233.396 316.035C231.822 326.818 229.61 332.023 224.644 336.81C219.186 342.062 213.188 343.828 198.979 344.246L190.424 344.525L190.67 345.733C190.817 346.384 192.095 352.937 193.521 360.28C195.832 372.178 196.225 373.619 197.16 373.898C199.47 374.548 210.73 374.688 215.253 374.176C228.135 372.643 237.919 368.413 246.769 360.606C258.52 350.241 263.535 337.646 265.256 314.176C265.551 309.993 265.748 265.284 265.748 195.524V83.6564H234.33L234.133 197.847Z" fill="#ECF3FB"/>
<path d="M105.463 81.1932C76.7496 83.8423 53.7887 93.974 33.9252 112.704C16.1759 129.528 5.5067 149.094 1.18001 172.936C0.147501 178.467 0.049167 180.698 0 192.642C0 207.607 0.393336 211.186 3.44169 222.387C7.76838 238.281 15.8809 253.665 26.5993 266.12C38.9402 280.481 56.9845 292.472 74.488 297.91C92.6797 303.533 113.625 305.16 137.176 302.743C156.449 300.745 173.658 296.004 190.178 288.057L195.93 285.268V267.886C195.93 258.312 195.783 250.504 195.635 250.504C194.16 251.246 192.732 252.068 191.358 252.968C161.858 271.14 127.441 278.436 98.1373 272.766C69.5221 267.282 45.8728 247.483 36.8752 221.504C30.8277 203.982 30.8277 182.417 36.9244 164.989C39.1861 158.529 43.7586 149.977 47.8395 144.54C52.0678 138.87 62.0979 129.389 68.0963 125.392C76.4546 119.768 87.3697 115.213 97.5965 112.983C107.184 110.891 121.246 110.287 131.768 111.495C150.648 113.726 171.298 120.512 189.391 130.504C190.612 131.224 191.876 131.875 193.177 132.456C193.374 132.456 193.423 124.787 193.374 115.446L193.226 98.4357L185.605 95.4147C167.119 88.118 148.927 83.424 131.768 81.565C126.064 80.9608 110.478 80.7284 105.463 81.1932Z" fill="#ECF3FB"/>
</svg>
