<svg width="215" height="203" viewBox="0 0 215 203" fill="none" xmlns="http://www.w3.org/2000/svg">
<g clip-path="url(#clip0_37_865)">
<path d="M107.5 22.2031C90.8895 22.2031 74.652 26.8538 60.8408 35.5671C47.0297 44.2803 36.2652 56.6648 29.9086 71.1544C23.552 85.644 21.8888 101.588 25.1294 116.97C28.37 132.352 36.3687 146.481 48.1141 157.571C59.8595 168.661 74.8241 176.214 91.1155 179.273C107.407 182.333 124.293 180.763 139.639 174.761C154.986 168.759 168.102 158.595 177.331 145.555C186.559 132.515 191.484 117.183 191.484 101.5C191.46 80.4763 182.604 60.3202 166.859 45.4541C151.114 30.5881 129.767 22.2262 107.5 22.2031ZM57.8401 157.341C62.8246 149.054 70.0463 142.162 78.7697 137.368C87.4931 132.573 97.4064 130.047 107.5 130.047C117.594 130.047 127.507 132.573 136.23 137.368C144.954 142.162 152.175 149.054 157.16 157.341C143.26 168.392 125.672 174.453 107.5 174.453C89.3281 174.453 71.7403 168.392 57.8401 157.341ZM162.233 152.94C153.887 139.766 140.508 130.116 124.851 125.979C132.131 122.324 137.906 116.475 141.259 109.363C144.612 102.251 145.35 94.2849 143.355 86.7315C141.36 79.1782 136.747 72.4717 130.25 67.6791C123.753 62.8865 115.745 60.2831 107.5 60.2831C99.2552 60.2831 91.2472 62.8865 84.75 67.6791C78.2529 72.4717 73.6399 79.1782 71.645 86.7315C69.65 94.2849 70.3877 102.251 73.7407 109.363C77.0938 116.475 82.8694 122.324 90.1489 125.979C74.4924 130.116 61.113 139.766 52.7674 152.94C41.9893 142.727 34.6578 129.727 31.6989 115.583C28.74 101.439 30.2862 86.7836 36.1424 73.4683C41.9985 60.1531 51.902 48.7748 64.6023 40.7701C77.3026 32.7654 92.2301 28.4934 107.5 28.4934C122.77 28.4934 137.698 32.7654 150.398 40.7701C163.098 48.7748 173.002 60.1531 178.858 73.4683C184.714 86.7836 186.26 101.439 183.301 115.583C180.342 129.727 173.011 142.727 162.233 152.94ZM107.5 123.703C101.52 123.703 95.6747 122.029 90.7027 118.892C85.7307 115.755 81.8555 111.297 79.5671 106.081C77.2788 100.864 76.68 95.1246 77.8466 89.587C79.0132 84.0495 81.8928 78.9629 86.1211 74.9706C90.3495 70.9782 95.7367 68.2594 101.602 67.1579C107.466 66.0564 113.546 66.6217 119.07 68.7824C124.595 70.943 129.317 74.602 132.639 79.2965C135.961 83.991 137.734 89.5102 137.734 95.1563C137.734 102.727 134.549 109.988 128.879 115.342C123.209 120.696 115.519 123.703 107.5 123.703Z" fill="#001830" fill-opacity="0.64"/>
<path d="M147.25 188.084C146.104 188.084 145.124 187.7 144.308 186.934C143.492 186.166 143.083 185.244 143.083 184.167V160.667C143.083 159.59 143.492 158.668 144.308 157.902C145.124 157.134 146.104 156.75 147.25 156.75H153.812L157.667 152.834H170.167V160.667H176.417V166.542H184.75V184.167C184.75 185.244 184.342 186.166 183.527 186.934C182.71 187.7 181.729 188.084 180.583 188.084H147.25ZM163.917 181.229C166.521 181.229 168.735 180.373 170.558 178.66C172.38 176.946 173.292 174.865 173.292 172.417C173.292 169.969 172.38 167.888 170.558 166.174C168.735 164.461 166.521 163.604 163.917 163.604C161.312 163.604 159.099 164.461 157.275 166.174C155.453 167.888 154.542 169.969 154.542 172.417C154.542 174.865 155.453 176.946 157.275 178.66C159.099 180.373 161.312 181.229 163.917 181.229ZM163.917 177.313C162.458 177.313 161.226 176.84 160.219 175.893C159.212 174.947 158.708 173.788 158.708 172.417C158.708 171.046 159.212 169.887 160.219 168.941C161.226 167.994 162.458 167.521 163.917 167.521C165.375 167.521 166.608 167.994 167.615 168.941C168.621 169.887 169.125 171.046 169.125 172.417C169.125 173.788 168.621 174.947 167.615 175.893C166.608 176.84 165.375 177.313 163.917 177.313ZM180.583 160.667V156.75H176.417V152.834H180.583V148.917H184.75V152.834H188.917V156.75H184.75V160.667H180.583Z" fill="#001830"/>
</g>
<defs>
<clipPath id="clip0_37_865">
<rect width="215" height="203" fill="white"/>
</clipPath>
</defs>
</svg>
